<?xml version="1.0" encoding="UTF-8" standalone="no"?><svg xmlns="http://www.w3.org/2000/svg" xmlns:xlink="http://www.w3.org/1999/xlink" contentStyleType="text/css" height="375px" preserveAspectRatio="none" style="width:516px;height:375px;background:#FFFFFF;" version="1.1" viewBox="0 0 516 375" width="516px" zoomAndPan="magnify"><defs/><g><rect fill="none" height="179.6016" style="stroke:#000000;stroke-width:1.5;" width="500.5" x="10" y="98.2969"/><rect fill="none" height="148.4688" style="stroke:#000000;stroke-width:1.5;" width="480.5" x="20" y="122.4297"/><line style="stroke:#181818;stroke-width:0.5;stroke-dasharray:5.0,5.0;" x1="60" x2="60" y1="81.2969" y2="294.8984"/><line style="stroke:#181818;stroke-width:0.5;stroke-dasharray:5.0,5.0;" x1="265" x2="265" y1="81.2969" y2="294.8984"/><line style="stroke:#181818;stroke-width:0.5;stroke-dasharray:5.0,5.0;" x1="446.5" x2="446.5" y1="81.2969" y2="294.8984"/><text fill="#000000" font-family="sans-serif" font-size="14" lengthAdjust="spacing" textLength="54" x="30" y="77.9951">Player 1</text><ellipse cx="60" cy="13.5" fill="#E2E2F0" rx="8" ry="8" style="stroke:#181818;stroke-width:0.5;"/><path d="M60,21.5 L60,48.5 M47,29.5 L73,29.5 M60,48.5 L47,63.5 M60,48.5 L73,63.5 " fill="none" style="stroke:#181818;stroke-width:0.5;"/><text fill="#000000" font-family="sans-serif" font-size="14" lengthAdjust="spacing" textLength="54" x="30" y="306.8936">Player 1</text><ellipse cx="60" cy="318.6953" fill="#E2E2F0" rx="8" ry="8" style="stroke:#181818;stroke-width:0.5;"/><path d="M60,326.6953 L60,353.6953 M47,334.6953 L73,334.6953 M60,353.6953 L47,368.6953 M60,353.6953 L73,368.6953 " fill="none" style="stroke:#181818;stroke-width:0.5;"/><text fill="#000000" font-family="sans-serif" font-size="14" lengthAdjust="spacing" textLength="54" x="235" y="77.9951">Player 2</text><ellipse cx="265" cy="13.5" fill="#E2E2F0" rx="8" ry="8" style="stroke:#181818;stroke-width:0.5;"/><path d="M265,21.5 L265,48.5 M252,29.5 L278,29.5 M265,48.5 L252,63.5 M265,48.5 L278,63.5 " fill="none" style="stroke:#181818;stroke-width:0.5;"/><text fill="#000000" font-family="sans-serif" font-size="14" lengthAdjust="spacing" textLength="54" x="235" y="306.8936">Player 2</text><ellipse cx="265" cy="318.6953" fill="#E2E2F0" rx="8" ry="8" style="stroke:#181818;stroke-width:0.5;"/><path d="M265,326.6953 L265,353.6953 M252,334.6953 L278,334.6953 M265,353.6953 L252,368.6953 M265,353.6953 L278,368.6953 " fill="none" style="stroke:#181818;stroke-width:0.5;"/><rect fill="#E2E2F0" height="30.2969" rx="2.5" ry="2.5" style="stroke:#181818;stroke-width:0.5;" width="87" x="403.5" y="50"/><text fill="#000000" font-family="sans-serif" font-size="14" lengthAdjust="spacing" textLength="73" x="410.5" y="69.9951">Game Grid</text><rect fill="#E2E2F0" height="30.2969" rx="2.5" ry="2.5" style="stroke:#181818;stroke-width:0.5;" width="87" x="403.5" y="293.8984"/><text fill="#000000" font-family="sans-serif" font-size="14" lengthAdjust="spacing" textLength="73" x="410.5" y="313.8936">Game Grid</text><path d="M10,98.2969 L87,98.2969 L87,105.4297 L77,115.4297 L10,115.4297 L10,98.2969 " fill="#EEEEEE" style="stroke:#000000;stroke-width:1.5;"/><rect fill="none" height="179.6016" style="stroke:#000000;stroke-width:1.5;" width="500.5" x="10" y="98.2969"/><text fill="#000000" font-family="sans-serif" font-size="13" font-weight="bold" lengthAdjust="spacing" textLength="32" x="25" y="111.3638">loop</text><text fill="#000000" font-family="sans-serif" font-size="11" font-weight="bold" lengthAdjust="spacing" textLength="162" x="102" y="110.5073">[While Game is Not Over]</text><path d="M20,122.4297 L84,122.4297 L84,129.5625 L74,139.5625 L20,139.5625 L20,122.4297 " fill="#EEEEEE" style="stroke:#000000;stroke-width:1.5;"/><rect fill="none" height="148.4688" style="stroke:#000000;stroke-width:1.5;" width="480.5" x="20" y="122.4297"/><text fill="#000000" font-family="sans-serif" font-size="13" font-weight="bold" lengthAdjust="spacing" textLength="19" x="35" y="135.4966">alt</text><text fill="#000000" font-family="sans-serif" font-size="11" font-weight="bold" lengthAdjust="spacing" textLength="123" x="99" y="134.6401">[Player One's Turn]</text><polygon fill="#181818" points="435,156.6953,445,160.6953,435,164.6953,439,160.6953" style="stroke:#181818;stroke-width:1.0;"/><line style="stroke:#181818;stroke-width:1.0;" x1="60" x2="441" y1="160.6953" y2="160.6953"/><text fill="#000000" font-family="sans-serif" font-size="13" lengthAdjust="spacing" textLength="158" x="67" y="155.6294">Choose an open position</text><polygon fill="#181818" points="253,185.8281,263,189.8281,253,193.8281,257,189.8281" style="stroke:#181818;stroke-width:1.0;"/><line style="stroke:#181818;stroke-width:1.0;" x1="60" x2="259" y1="189.8281" y2="189.8281"/><text fill="#000000" font-family="sans-serif" font-size="13" lengthAdjust="spacing" textLength="179" x="67" y="184.7622">Change to Player Two's Turn</text><line style="stroke:#000000;stroke-width:1.0;stroke-dasharray:2.0,2.0;" x1="20" x2="500.5" y1="198.8281" y2="198.8281"/><text fill="#000000" font-family="sans-serif" font-size="11" font-weight="bold" lengthAdjust="spacing" textLength="124" x="25" y="209.0386">[Player Two's Turn]</text><polygon fill="#181818" points="435,229.7656,445,233.7656,435,237.7656,439,233.7656" style="stroke:#181818;stroke-width:1.0;"/><line style="stroke:#181818;stroke-width:1.0;" x1="265" x2="441" y1="233.7656" y2="233.7656"/><text fill="#000000" font-family="sans-serif" font-size="13" lengthAdjust="spacing" textLength="158" x="272" y="228.6997">Choose an open position</text><polygon fill="#181818" points="71,258.8984,61,262.8984,71,266.8984,67,262.8984" style="stroke:#181818;stroke-width:1.0;"/><line style="stroke:#181818;stroke-width:1.0;" x1="65" x2="264" y1="262.8984" y2="262.8984"/><text fill="#000000" font-family="sans-serif" font-size="13" lengthAdjust="spacing" textLength="181" x="77" y="257.8325">Change to Player One's Turn</text><!--MD5=[aab19c05e8d4de3de6dc7bcb1277741c]
@startuml
' Two actors as players, giving an alias for simplier writing later
actor p1 as "Player 1"
actor p2 as "Player 2"

' The grid the game is played on
participant grid as "Game Grid"

' The core loop of the game
loop While Game is Not Over
    alt Player One's Turn
        p1 -> grid : Choose an open position
        p1 -> p2 : Change to Player Two's Turn        
    else Player Two's Turn
        p2 -> grid : Choose an open position
        p2 -> p1 : Change to Player One's Turn        
    end
end
@enduml

@startuml
actor p1 as "Player 1"
actor p2 as "Player 2"

participant grid as "Game Grid"

loop While Game is Not Over
    alt Player One's Turn
        p1 -> grid : Choose an open position
        p1 -> p2 : Change to Player Two's Turn        
    else Player Two's Turn
        p2 -> grid : Choose an open position
        p2 -> p1 : Change to Player One's Turn        
    end
end
@enduml

PlantUML version 1.2022.7(Mon Aug 22 12:01:30 CDT 2022)
(GPL source distribution)
Java Runtime: OpenJDK Runtime Environment
JVM: OpenJDK 64-Bit Server VM
Default Encoding: UTF-8
Language: en
Country: US
--></g></svg>